<?xml version="1.0" standalone="no"?><!DOCTYPE svg PUBLIC "-//W3C//DTD SVG 1.1//EN" "http://www.w3.org/Graphics/SVG/1.1/DTD/svg11.dtd"><svg t="1693294764676" class="icon" viewBox="0 0 1024 1024" version="1.1" xmlns="http://www.w3.org/2000/svg" p-id="4962" xmlns:xlink="http://www.w3.org/1999/xlink" width="200" height="200"><path d="M512 512m-237.7 0a237.7 237.7 0 1 0 475.4 0 237.7 237.7 0 1 0-475.4 0Z" fill="#F0E203" p-id="4963"></path><path d="M738.7 503c0 131.3-106.4 237.7-237.7 237.7-70.3 0-133.5-30.6-177.1-79.1 39 28.1 86.9 44.6 138.7 44.6 131.3 0 237.7-106.4 237.7-237.7 0-60.9-22.9-116.5-60.6-158.6 59.9 43.2 99 113.6 99 193.1z" fill="#ED9507" p-id="4964"></path><path d="M736.7 589.6C704.6 682.8 616.1 749.7 512 749.7c-131.3 0-237.7-106.4-237.7-237.7 0-104.1 66.9-192.6 160.1-224.7-8.4 24.3-13 50.4-13 77.6 0 131.3 106.4 237.7 237.7 237.7 27.2 0 53.3-4.6 77.6-13z" fill="#97EBFF" p-id="4965"></path><path d="M720.4 594.6C684.5 680.4 599.8 740.7 501 740.7c-54.6 0-105-18.5-145.2-49.5-11.5-8.9-22.2-18.8-31.9-29.6 2.6 1.9 5.3 3.7 7.9 5.5 37.5 24.8 82.4 39.1 130.8 39.1 81.6 0 153.5-41 196.3-103.6h0.2c21.2 0 41.7-2.8 61.3-8z" fill="#07DBFF" p-id="4966"></path><path d="M720.4 594.6C684.5 680.4 599.8 740.7 501 740.7c-54.6 0-105-18.5-145.2-49.5-8.6-7.5-16.6-15.5-24-24.1 37.5 24.8 82.4 39.1 130.8 39.1 81.6 0 153.5-41 196.3-103.6h0.2c21.2 0 41.7-2.8 61.3-8z" fill="#07DBFF" p-id="4967"></path><path d="M694.2 329.8c-48.7-48.7-113.4-75.5-182.2-75.5s-133.5 26.8-182.2 75.5c-48.7 48.7-75.5 113.4-75.5 182.2s26.8 133.5 75.5 182.2 113.4 75.5 182.2 75.5 133.5-26.8 182.2-75.5 75.5-113.4 75.5-182.2-26.8-133.5-75.5-182.2z m-28.3 28.3c41.2 41.1 63.8 95.8 63.8 153.9 0 21.2-3 41.9-8.9 61.7-20 5.9-40.7 8.9-61.7 8.9-58.2 0-112.8-22.6-153.9-63.8-41.1-41.1-63.8-95.8-63.8-153.9 0-21 3-41.8 8.9-61.8 19.8-5.8 40.5-8.8 61.7-8.8 58.1 0 112.8 22.6 153.9 63.8z m0 307.8c-41.1 41.2-95.8 63.8-153.9 63.8S399.3 707 358.1 665.9c-41.2-41.1-63.8-95.8-63.8-153.9 0-58.1 22.7-112.8 63.8-153.9 14.1-14.2 29.9-26.1 46.8-35.7-2.3 14-3.5 28.2-3.5 42.5 0 68.8 26.8 133.6 75.5 182.2 48.7 48.7 113.4 75.5 182.2 75.5 14.3 0 28.5-1.2 42.5-3.5-9.6 16.9-21.6 32.6-35.7 46.8zM614.7 818.4c-2.9-10.6-13.8-17-24.5-14.1-10.6 2.9-17 13.8-14.1 24.5l26.4 98.4c2.4 8.9 10.5 14.8 19.3 14.8 1.8 0 3.5-0.2 5.2-0.7 10.6-2.9 17-13.8 14.1-24.5l-26.4-98.4zM754.3 725.9c-7.8-7.8-20.5-7.8-28.3 0s-7.8 20.5 0 28.3l72 72c3.9 3.9 9 5.9 14.1 5.9 5.2 0 10.3-1.9 14.2-5.9 7.8-7.8 7.8-20.5 0-28.3l-72-72zM927.2 602.6l-98.4-26.4c-10.7-2.9-21.6 3.4-24.5 14.1s3.4 21.6 14.1 24.5l98.4 26.4c1.7 0.5 3.5 0.7 5.2 0.7 8.8 0 16.9-5.9 19.3-14.8 2.9-10.7-3.4-21.6-14.1-24.5zM804.3 433.7c2.4 8.9 10.5 14.8 19.3 14.8 1.7 0 3.4-0.2 5.2-0.7l98.4-26.4c10.6-2.9 17-13.9 14.1-24.5-2.9-10.6-13.8-17-24.5-14.1l-98.4 26.4c-10.6 2.9-17 13.8-14.1 24.5zM740.1 303.9c5.1 0 10.2-2 14.2-5.9l72-72c7.8-7.8 7.8-20.5 0-28.3s-20.5-7.8-28.3 0l-72 72c-7.8 7.8-7.8 20.5 0 28.3 3.9 3.9 9 5.9 14.1 5.9zM590.3 219.7c1.7 0.5 3.5 0.7 5.2 0.7 8.8 0 16.9-5.9 19.3-14.8l26.4-98.4c2.9-10.7-3.4-21.6-14.1-24.5-10.7-2.9-21.6 3.4-24.5 14.1l-26.4 98.4c-2.9 10.7 3.4 21.6 14.1 24.5zM376.5 182H389v22.5c0 11 9 20 20 20s20-9 20-20V182h12.5c11 0 20-9 20-20s-9-20-20-20H429v-22.5c0-11-9-20-20-20s-20 9-20 20V142h-12.5c-11 0-20 9-20 20s9 20 20 20zM192.5 296.8H180v-22.5c0-11-9-20-20-20s-20 9-20 20v22.5h-12.5c-11 0-20 9-20 20s9 20 20 20H140v22.5c0 11 9 20 20 20s20-9 20-20v-22.5h12.5c11 0 20-9 20-20s-9-20-20-20zM165 671.2c11 0 20-9 20-20s-9-20-20-20h-12.5v-22.5c0-11-9-20-20-20s-20 9-20 20v22.5H100c-11 0-20 9-20 20s9 20 20 20h12.5v22.5c0 11 9 20 20 20s20-9 20-20v-22.5H165zM388.9 852.8h-12.5v-22.5c0-11-9-20-20-20s-20 9-20 20v22.5h-12.5c-11 0-20 9-20 20s9 20 20 20h12.5v22.5c0 11 9 20 20 20s20-9 20-20v-22.5h12.5c11 0 20-9 20-20s-9-20-20-20z" fill="#3F1E01" p-id="4968"></path><path d="M212.3 176.7a21 20 0 1 0 42 0 21 20 0 1 0-42 0Z" fill="#3F1E01" p-id="4969"></path><path d="M118 487.3a21 20 0 1 0 42 0 21 20 0 1 0-42 0Z" fill="#3F1E01" p-id="4970"></path><path d="M281.9 729.7a21 20 0 1 0 42 0 21 20 0 1 0-42 0Z" fill="#3F1E01" p-id="4971"></path><path d="M160 842a21 20 0 1 0 42 0 21 20 0 1 0-42 0Z" fill="#3F1E01" p-id="4972"></path></svg>